<mxfile host="app.diagrams.net" modified="2024-02-07T09:39:05.146Z" agent="Mozilla/5.0 (Windows NT 10.0; Win64; x64) AppleWebKit/537.36 (KHTML, like Gecko) Chrome/121.0.0.0 Safari/537.36" etag="rUgGtWS_aelFu8jTd9Ml" version="23.1.1" type="device">
  <diagram name="Страница — 1" id="NG9Lc1yqqnFtCxsTc51v">
    <mxGraphModel dx="2062" dy="1937" grid="1" gridSize="10" guides="1" tooltips="1" connect="1" arrows="1" fold="1" page="1" pageScale="1" pageWidth="827" pageHeight="1169" math="0" shadow="0">
      <root>
        <mxCell id="0" />
        <mxCell id="1" parent="0" />
        <mxCell id="PUMukoSkc652RVHDiV5a-12" style="edgeStyle=orthogonalEdgeStyle;rounded=0;orthogonalLoop=1;jettySize=auto;html=1;entryX=0.5;entryY=0;entryDx=0;entryDy=0;" parent="1" source="PUMukoSkc652RVHDiV5a-9" target="PUMukoSkc652RVHDiV5a-11" edge="1">
          <mxGeometry relative="1" as="geometry" />
        </mxCell>
        <mxCell id="PUMukoSkc652RVHDiV5a-9" value="Начало процедуры&lt;br&gt;drawing" style="strokeWidth=2;html=1;shape=mxgraph.flowchart.start_1;whiteSpace=wrap;" parent="1" vertex="1">
          <mxGeometry x="364" y="-1160" width="100" height="60" as="geometry" />
        </mxCell>
        <mxCell id="PUMukoSkc652RVHDiV5a-10" value="Конец процедуры&lt;br&gt;drawing" style="strokeWidth=2;html=1;shape=mxgraph.flowchart.start_1;whiteSpace=wrap;" parent="1" vertex="1">
          <mxGeometry x="364" y="-590" width="100" height="60" as="geometry" />
        </mxCell>
        <mxCell id="PUMukoSkc652RVHDiV5a-14" style="edgeStyle=orthogonalEdgeStyle;rounded=0;orthogonalLoop=1;jettySize=auto;html=1;" parent="1" source="PUMukoSkc652RVHDiV5a-11" target="PUMukoSkc652RVHDiV5a-13" edge="1">
          <mxGeometry relative="1" as="geometry" />
        </mxCell>
        <mxCell id="m0lxga6O_0EFN7dk0cp0-2" value="Да" style="edgeLabel;html=1;align=center;verticalAlign=middle;resizable=0;points=[];" vertex="1" connectable="0" parent="PUMukoSkc652RVHDiV5a-14">
          <mxGeometry x="0.5333" y="-1" relative="1" as="geometry">
            <mxPoint as="offset" />
          </mxGeometry>
        </mxCell>
        <mxCell id="m0lxga6O_0EFN7dk0cp0-1" style="edgeStyle=orthogonalEdgeStyle;rounded=0;orthogonalLoop=1;jettySize=auto;html=1;exitX=1;exitY=0.5;exitDx=0;exitDy=0;" edge="1" parent="1" source="PUMukoSkc652RVHDiV5a-11">
          <mxGeometry relative="1" as="geometry">
            <mxPoint x="414" y="-590" as="targetPoint" />
            <Array as="points">
              <mxPoint x="520" y="-1040" />
              <mxPoint x="520" y="-760" />
              <mxPoint x="415" y="-760" />
            </Array>
          </mxGeometry>
        </mxCell>
        <mxCell id="m0lxga6O_0EFN7dk0cp0-3" value="Нет" style="edgeLabel;html=1;align=center;verticalAlign=middle;resizable=0;points=[];" vertex="1" connectable="0" parent="m0lxga6O_0EFN7dk0cp0-1">
          <mxGeometry x="-0.9607" y="-3" relative="1" as="geometry">
            <mxPoint as="offset" />
          </mxGeometry>
        </mxCell>
        <mxCell id="PUMukoSkc652RVHDiV5a-11" value="deep &amp;gt;0&amp;nbsp;" style="rhombus;whiteSpace=wrap;html=1;" parent="1" vertex="1">
          <mxGeometry x="374" y="-1080" width="80" height="80" as="geometry" />
        </mxCell>
        <mxCell id="PUMukoSkc652RVHDiV5a-16" style="edgeStyle=orthogonalEdgeStyle;rounded=0;orthogonalLoop=1;jettySize=auto;html=1;entryX=0.5;entryY=0;entryDx=0;entryDy=0;" parent="1" source="PUMukoSkc652RVHDiV5a-13" target="PUMukoSkc652RVHDiV5a-15" edge="1">
          <mxGeometry relative="1" as="geometry" />
        </mxCell>
        <mxCell id="PUMukoSkc652RVHDiV5a-13" value="&lt;div&gt;x3 := (x2 - x1) div 3 + x1;&amp;nbsp;&lt;/div&gt;&lt;div&gt;&amp;nbsp; &amp;nbsp; y3 := (y2 - y1) div 3 + y1;&lt;/div&gt;&lt;div&gt;&amp;nbsp; &amp;nbsp; x4 := 2 * ((x2 - x1) div 3) + x1;&amp;nbsp;&lt;/div&gt;&lt;div&gt;&amp;nbsp; &amp;nbsp; y4 := 2 * ((y2 - y1) div 3) + y1;&lt;/div&gt;" style="rounded=0;whiteSpace=wrap;html=1;" parent="1" vertex="1">
          <mxGeometry x="324" y="-980" width="180" height="80" as="geometry" />
        </mxCell>
        <mxCell id="PUMukoSkc652RVHDiV5a-18" style="edgeStyle=orthogonalEdgeStyle;rounded=0;orthogonalLoop=1;jettySize=auto;html=1;entryX=0.5;entryY=0;entryDx=0;entryDy=0;" parent="1" source="PUMukoSkc652RVHDiV5a-15" edge="1">
          <mxGeometry relative="1" as="geometry">
            <mxPoint x="414" y="-745" as="targetPoint" />
          </mxGeometry>
        </mxCell>
        <mxCell id="PUMukoSkc652RVHDiV5a-15" value="&lt;div&gt;MoveTo(x3, y3);&lt;/div&gt;&lt;div&gt;&amp;nbsp; &amp;nbsp; LineTo(x4, y3);&lt;/div&gt;&lt;div&gt;&amp;nbsp; &amp;nbsp; LineTo(x4, y4);&lt;/div&gt;&lt;div&gt;&amp;nbsp; &amp;nbsp; LineTo(x3, y4);&lt;/div&gt;&lt;div&gt;&amp;nbsp; &amp;nbsp; LineTo(x3, y3);&lt;/div&gt;&lt;div&gt;&amp;nbsp; &amp;nbsp; floodfill(x3, y4, clwhite);&lt;/div&gt;" style="shape=parallelogram;perimeter=parallelogramPerimeter;whiteSpace=wrap;html=1;fixedSize=1;" parent="1" vertex="1">
          <mxGeometry x="334" y="-870" width="160" height="100" as="geometry" />
        </mxCell>
        <mxCell id="PUMukoSkc652RVHDiV5a-19" style="edgeStyle=orthogonalEdgeStyle;rounded=0;orthogonalLoop=1;jettySize=auto;html=1;" parent="1" target="PUMukoSkc652RVHDiV5a-10" edge="1">
          <mxGeometry relative="1" as="geometry">
            <mxPoint x="414" y="-615" as="sourcePoint" />
          </mxGeometry>
        </mxCell>
        <mxCell id="PUMukoSkc652RVHDiV5a-23" style="edgeStyle=orthogonalEdgeStyle;rounded=0;orthogonalLoop=1;jettySize=auto;html=1;entryX=0.5;entryY=0;entryDx=0;entryDy=0;" parent="1" source="PUMukoSkc652RVHDiV5a-21" target="PUMukoSkc652RVHDiV5a-22" edge="1">
          <mxGeometry relative="1" as="geometry" />
        </mxCell>
        <mxCell id="PUMukoSkc652RVHDiV5a-21" value="Начало" style="strokeWidth=2;html=1;shape=mxgraph.flowchart.start_1;whiteSpace=wrap;" parent="1" vertex="1">
          <mxGeometry x="364" y="-480" width="100" height="60" as="geometry" />
        </mxCell>
        <mxCell id="PUMukoSkc652RVHDiV5a-25" style="edgeStyle=orthogonalEdgeStyle;rounded=0;orthogonalLoop=1;jettySize=auto;html=1;entryX=0.5;entryY=0;entryDx=0;entryDy=0;" parent="1" source="PUMukoSkc652RVHDiV5a-22" target="PUMukoSkc652RVHDiV5a-24" edge="1">
          <mxGeometry relative="1" as="geometry" />
        </mxCell>
        <mxCell id="PUMukoSkc652RVHDiV5a-22" value="deep := 2;&lt;br&gt;&lt;div&gt;x1 := 20;&lt;/div&gt;&lt;div&gt;&amp;nbsp; x2 := 460;&lt;/div&gt;&lt;div&gt;&amp;nbsp; y1 := 20;&lt;/div&gt;&lt;div&gt;&amp;nbsp; y2 := 460;&lt;/div&gt;" style="rounded=0;whiteSpace=wrap;html=1;" parent="1" vertex="1">
          <mxGeometry x="354" y="-400" width="120" height="70" as="geometry" />
        </mxCell>
        <mxCell id="PUMukoSkc652RVHDiV5a-27" style="edgeStyle=orthogonalEdgeStyle;rounded=0;orthogonalLoop=1;jettySize=auto;html=1;entryX=0.5;entryY=0;entryDx=0;entryDy=0;" parent="1" source="PUMukoSkc652RVHDiV5a-24" target="PUMukoSkc652RVHDiV5a-26" edge="1">
          <mxGeometry relative="1" as="geometry" />
        </mxCell>
        <mxCell id="PUMukoSkc652RVHDiV5a-24" value="&lt;div&gt;MoveTo(20, 20);&lt;/div&gt;&lt;div&gt;&amp;nbsp; LineTo(460, 20);&lt;/div&gt;&lt;div&gt;&amp;nbsp; LineTo(460, 460);&lt;/div&gt;&lt;div&gt;&amp;nbsp; LineTo(20, 460);&lt;/div&gt;&lt;div&gt;&amp;nbsp; LineTo(20, 20);&lt;/div&gt;" style="shape=parallelogram;perimeter=parallelogramPerimeter;whiteSpace=wrap;html=1;fixedSize=1;" parent="1" vertex="1">
          <mxGeometry x="354" y="-310" width="120" height="70" as="geometry" />
        </mxCell>
        <mxCell id="PUMukoSkc652RVHDiV5a-29" style="edgeStyle=orthogonalEdgeStyle;rounded=0;orthogonalLoop=1;jettySize=auto;html=1;entryX=0.5;entryY=0;entryDx=0;entryDy=0;" parent="1" source="PUMukoSkc652RVHDiV5a-26" edge="1">
          <mxGeometry relative="1" as="geometry">
            <mxPoint x="414" y="-170" as="targetPoint" />
          </mxGeometry>
        </mxCell>
        <mxCell id="PUMukoSkc652RVHDiV5a-26" value="drawing(x1, y1, x2, y2, deep);" style="rounded=0;whiteSpace=wrap;html=1;" parent="1" vertex="1">
          <mxGeometry x="331" y="-220" width="166" height="30" as="geometry" />
        </mxCell>
        <mxCell id="PUMukoSkc652RVHDiV5a-40" style="edgeStyle=orthogonalEdgeStyle;rounded=0;orthogonalLoop=1;jettySize=auto;html=1;entryX=0.5;entryY=0;entryDx=0;entryDy=0;exitX=0.5;exitY=1;exitDx=0;exitDy=0;" parent="1" source="PUMukoSkc652RVHDiV5a-30" target="PUMukoSkc652RVHDiV5a-33" edge="1">
          <mxGeometry relative="1" as="geometry" />
        </mxCell>
        <mxCell id="PUMukoSkc652RVHDiV5a-41" value="VK_Left" style="edgeLabel;html=1;align=center;verticalAlign=middle;resizable=0;points=[];" parent="PUMukoSkc652RVHDiV5a-40" vertex="1" connectable="0">
          <mxGeometry x="0.8267" y="1" relative="1" as="geometry">
            <mxPoint as="offset" />
          </mxGeometry>
        </mxCell>
        <mxCell id="PUMukoSkc652RVHDiV5a-50" style="edgeStyle=orthogonalEdgeStyle;rounded=0;orthogonalLoop=1;jettySize=auto;html=1;exitX=0.5;exitY=1;exitDx=0;exitDy=0;" parent="1" source="PUMukoSkc652RVHDiV5a-30" target="PUMukoSkc652RVHDiV5a-44" edge="1">
          <mxGeometry relative="1" as="geometry" />
        </mxCell>
        <mxCell id="PUMukoSkc652RVHDiV5a-51" value="VK_Right" style="edgeLabel;html=1;align=center;verticalAlign=middle;resizable=0;points=[];" parent="PUMukoSkc652RVHDiV5a-50" vertex="1" connectable="0">
          <mxGeometry x="0.781" y="-2" relative="1" as="geometry">
            <mxPoint as="offset" />
          </mxGeometry>
        </mxCell>
        <mxCell id="PUMukoSkc652RVHDiV5a-59" style="edgeStyle=orthogonalEdgeStyle;rounded=0;orthogonalLoop=1;jettySize=auto;html=1;entryX=0.5;entryY=0;entryDx=0;entryDy=0;" parent="1" source="PUMukoSkc652RVHDiV5a-30" target="PUMukoSkc652RVHDiV5a-53" edge="1">
          <mxGeometry relative="1" as="geometry" />
        </mxCell>
        <mxCell id="PUMukoSkc652RVHDiV5a-60" value="VK_Up" style="edgeLabel;html=1;align=center;verticalAlign=middle;resizable=0;points=[];" parent="PUMukoSkc652RVHDiV5a-59" vertex="1" connectable="0">
          <mxGeometry x="0.6644" relative="1" as="geometry">
            <mxPoint as="offset" />
          </mxGeometry>
        </mxCell>
        <mxCell id="PUMukoSkc652RVHDiV5a-68" style="edgeStyle=orthogonalEdgeStyle;rounded=0;orthogonalLoop=1;jettySize=auto;html=1;entryX=0.5;entryY=0;entryDx=0;entryDy=0;" parent="1" source="PUMukoSkc652RVHDiV5a-30" target="PUMukoSkc652RVHDiV5a-62" edge="1">
          <mxGeometry relative="1" as="geometry" />
        </mxCell>
        <mxCell id="PUMukoSkc652RVHDiV5a-69" value="VK_Down" style="edgeLabel;html=1;align=center;verticalAlign=middle;resizable=0;points=[];" parent="PUMukoSkc652RVHDiV5a-68" vertex="1" connectable="0">
          <mxGeometry x="0.2105" y="1" relative="1" as="geometry">
            <mxPoint as="offset" />
          </mxGeometry>
        </mxCell>
        <mxCell id="PUMukoSkc652RVHDiV5a-77" style="edgeStyle=orthogonalEdgeStyle;rounded=0;orthogonalLoop=1;jettySize=auto;html=1;entryX=0.5;entryY=0;entryDx=0;entryDy=0;exitX=0.5;exitY=1;exitDx=0;exitDy=0;" parent="1" source="PUMukoSkc652RVHDiV5a-30" target="PUMukoSkc652RVHDiV5a-71" edge="1">
          <mxGeometry relative="1" as="geometry" />
        </mxCell>
        <mxCell id="PUMukoSkc652RVHDiV5a-78" value="VK_Z" style="edgeLabel;html=1;align=center;verticalAlign=middle;resizable=0;points=[];" parent="PUMukoSkc652RVHDiV5a-77" vertex="1" connectable="0">
          <mxGeometry x="0.6311" y="2" relative="1" as="geometry">
            <mxPoint as="offset" />
          </mxGeometry>
        </mxCell>
        <mxCell id="PUMukoSkc652RVHDiV5a-86" style="edgeStyle=orthogonalEdgeStyle;rounded=0;orthogonalLoop=1;jettySize=auto;html=1;entryX=0.5;entryY=0;entryDx=0;entryDy=0;exitX=0.5;exitY=1;exitDx=0;exitDy=0;" parent="1" source="PUMukoSkc652RVHDiV5a-30" target="PUMukoSkc652RVHDiV5a-80" edge="1">
          <mxGeometry relative="1" as="geometry" />
        </mxCell>
        <mxCell id="PUMukoSkc652RVHDiV5a-87" value="VK_X" style="edgeLabel;html=1;align=center;verticalAlign=middle;resizable=0;points=[];" parent="PUMukoSkc652RVHDiV5a-86" vertex="1" connectable="0">
          <mxGeometry x="0.7221" relative="1" as="geometry">
            <mxPoint as="offset" />
          </mxGeometry>
        </mxCell>
        <mxCell id="m0lxga6O_0EFN7dk0cp0-23" style="edgeStyle=orthogonalEdgeStyle;rounded=0;orthogonalLoop=1;jettySize=auto;html=1;entryX=0.5;entryY=0;entryDx=0;entryDy=0;exitX=0.5;exitY=1;exitDx=0;exitDy=0;" edge="1" parent="1" source="PUMukoSkc652RVHDiV5a-30" target="m0lxga6O_0EFN7dk0cp0-7">
          <mxGeometry relative="1" as="geometry" />
        </mxCell>
        <mxCell id="m0lxga6O_0EFN7dk0cp0-24" style="edgeStyle=orthogonalEdgeStyle;rounded=0;orthogonalLoop=1;jettySize=auto;html=1;entryX=0.5;entryY=0;entryDx=0;entryDy=0;exitX=0.5;exitY=1;exitDx=0;exitDy=0;" edge="1" parent="1" source="PUMukoSkc652RVHDiV5a-30" target="m0lxga6O_0EFN7dk0cp0-16">
          <mxGeometry relative="1" as="geometry" />
        </mxCell>
        <mxCell id="PUMukoSkc652RVHDiV5a-30" value="*нажатая клавиша*?" style="rhombus;whiteSpace=wrap;html=1;" parent="1" vertex="1">
          <mxGeometry x="367" y="-170" width="94" height="80" as="geometry" />
        </mxCell>
        <mxCell id="PUMukoSkc652RVHDiV5a-35" style="edgeStyle=orthogonalEdgeStyle;rounded=0;orthogonalLoop=1;jettySize=auto;html=1;" parent="1" source="PUMukoSkc652RVHDiV5a-33" target="PUMukoSkc652RVHDiV5a-34" edge="1">
          <mxGeometry relative="1" as="geometry" />
        </mxCell>
        <mxCell id="PUMukoSkc652RVHDiV5a-33" value="ClearWindow();" style="shape=parallelogram;perimeter=parallelogramPerimeter;whiteSpace=wrap;html=1;fixedSize=1;" parent="1" vertex="1">
          <mxGeometry y="-40" width="120" height="60" as="geometry" />
        </mxCell>
        <mxCell id="PUMukoSkc652RVHDiV5a-37" style="edgeStyle=orthogonalEdgeStyle;rounded=0;orthogonalLoop=1;jettySize=auto;html=1;entryX=0.5;entryY=0;entryDx=0;entryDy=0;" parent="1" source="PUMukoSkc652RVHDiV5a-34" target="PUMukoSkc652RVHDiV5a-36" edge="1">
          <mxGeometry relative="1" as="geometry" />
        </mxCell>
        <mxCell id="PUMukoSkc652RVHDiV5a-34" value="x1 := x1 - 5;&lt;br&gt;x2 := x2 - 5;" style="rounded=0;whiteSpace=wrap;html=1;" parent="1" vertex="1">
          <mxGeometry y="40" width="120" height="40" as="geometry" />
        </mxCell>
        <mxCell id="PUMukoSkc652RVHDiV5a-39" style="edgeStyle=orthogonalEdgeStyle;rounded=0;orthogonalLoop=1;jettySize=auto;html=1;" parent="1" source="PUMukoSkc652RVHDiV5a-36" target="PUMukoSkc652RVHDiV5a-38" edge="1">
          <mxGeometry relative="1" as="geometry" />
        </mxCell>
        <mxCell id="PUMukoSkc652RVHDiV5a-36" value="drawing(x1, y1, x2, y2, deep);" style="rounded=0;whiteSpace=wrap;html=1;" parent="1" vertex="1">
          <mxGeometry y="100" width="120" height="30" as="geometry" />
        </mxCell>
        <mxCell id="PUMukoSkc652RVHDiV5a-38" value="&lt;div&gt;&lt;span style=&quot;white-space: pre;&quot;&gt;&#x9;&lt;/span&gt;MoveTo(x1, y1);&lt;/div&gt;&lt;div&gt;&amp;nbsp; &amp;nbsp; &amp;nbsp; LineTo(x2, y1);&lt;span style=&quot;background-color: initial;&quot;&gt;&amp;nbsp; &amp;nbsp; &amp;nbsp;LineTo(x2, y2);&lt;/span&gt;&lt;/div&gt;&lt;div&gt;&amp;nbsp; &amp;nbsp;LineTo(x1, y2);&lt;/div&gt;&lt;div&gt;&amp;nbsp; LineTo(x1, y1);&lt;/div&gt;" style="shape=parallelogram;perimeter=parallelogramPerimeter;whiteSpace=wrap;html=1;fixedSize=1;" parent="1" vertex="1">
          <mxGeometry x="-5" y="160" width="130" height="80" as="geometry" />
        </mxCell>
        <mxCell id="PUMukoSkc652RVHDiV5a-43" style="edgeStyle=orthogonalEdgeStyle;rounded=0;orthogonalLoop=1;jettySize=auto;html=1;" parent="1" source="PUMukoSkc652RVHDiV5a-44" target="PUMukoSkc652RVHDiV5a-46" edge="1">
          <mxGeometry relative="1" as="geometry" />
        </mxCell>
        <mxCell id="PUMukoSkc652RVHDiV5a-44" value="ClearWindow();" style="shape=parallelogram;perimeter=parallelogramPerimeter;whiteSpace=wrap;html=1;fixedSize=1;" parent="1" vertex="1">
          <mxGeometry x="130" y="-40" width="120" height="60" as="geometry" />
        </mxCell>
        <mxCell id="PUMukoSkc652RVHDiV5a-45" style="edgeStyle=orthogonalEdgeStyle;rounded=0;orthogonalLoop=1;jettySize=auto;html=1;entryX=0.5;entryY=0;entryDx=0;entryDy=0;" parent="1" source="PUMukoSkc652RVHDiV5a-46" target="PUMukoSkc652RVHDiV5a-48" edge="1">
          <mxGeometry relative="1" as="geometry" />
        </mxCell>
        <mxCell id="PUMukoSkc652RVHDiV5a-46" value="x1 := x1 + 5;&lt;br&gt;x2 := x2 + 5;" style="rounded=0;whiteSpace=wrap;html=1;" parent="1" vertex="1">
          <mxGeometry x="130" y="40" width="120" height="40" as="geometry" />
        </mxCell>
        <mxCell id="PUMukoSkc652RVHDiV5a-47" style="edgeStyle=orthogonalEdgeStyle;rounded=0;orthogonalLoop=1;jettySize=auto;html=1;" parent="1" source="PUMukoSkc652RVHDiV5a-48" target="PUMukoSkc652RVHDiV5a-49" edge="1">
          <mxGeometry relative="1" as="geometry" />
        </mxCell>
        <mxCell id="PUMukoSkc652RVHDiV5a-48" value="drawing(x1, y1, x2, y2, deep);" style="rounded=0;whiteSpace=wrap;html=1;" parent="1" vertex="1">
          <mxGeometry x="130" y="100" width="120" height="30" as="geometry" />
        </mxCell>
        <mxCell id="PUMukoSkc652RVHDiV5a-91" style="edgeStyle=orthogonalEdgeStyle;rounded=0;orthogonalLoop=1;jettySize=auto;html=1;exitX=0.5;exitY=1;exitDx=0;exitDy=0;" parent="1" source="PUMukoSkc652RVHDiV5a-49" edge="1">
          <mxGeometry relative="1" as="geometry">
            <mxPoint x="190.31578947368416" y="260" as="targetPoint" />
          </mxGeometry>
        </mxCell>
        <mxCell id="PUMukoSkc652RVHDiV5a-49" value="&lt;div&gt;&lt;span style=&quot;white-space: pre;&quot;&gt;&#x9;&lt;/span&gt;MoveTo(x1, y1);&lt;/div&gt;&lt;div&gt;&amp;nbsp; &amp;nbsp; &amp;nbsp; LineTo(x2, y1);&lt;span style=&quot;background-color: initial;&quot;&gt;&amp;nbsp; &amp;nbsp; &amp;nbsp;LineTo(x2, y2);&lt;/span&gt;&lt;/div&gt;&lt;div&gt;&amp;nbsp; &amp;nbsp;LineTo(x1, y2);&lt;/div&gt;&lt;div&gt;&amp;nbsp; LineTo(x1, y1);&lt;/div&gt;" style="shape=parallelogram;perimeter=parallelogramPerimeter;whiteSpace=wrap;html=1;fixedSize=1;" parent="1" vertex="1">
          <mxGeometry x="125" y="160" width="130" height="80" as="geometry" />
        </mxCell>
        <mxCell id="PUMukoSkc652RVHDiV5a-52" style="edgeStyle=orthogonalEdgeStyle;rounded=0;orthogonalLoop=1;jettySize=auto;html=1;" parent="1" source="PUMukoSkc652RVHDiV5a-53" target="PUMukoSkc652RVHDiV5a-55" edge="1">
          <mxGeometry relative="1" as="geometry" />
        </mxCell>
        <mxCell id="PUMukoSkc652RVHDiV5a-53" value="ClearWindow();" style="shape=parallelogram;perimeter=parallelogramPerimeter;whiteSpace=wrap;html=1;fixedSize=1;" parent="1" vertex="1">
          <mxGeometry x="255" y="-40" width="120" height="60" as="geometry" />
        </mxCell>
        <mxCell id="PUMukoSkc652RVHDiV5a-54" style="edgeStyle=orthogonalEdgeStyle;rounded=0;orthogonalLoop=1;jettySize=auto;html=1;entryX=0.5;entryY=0;entryDx=0;entryDy=0;" parent="1" source="PUMukoSkc652RVHDiV5a-55" target="PUMukoSkc652RVHDiV5a-57" edge="1">
          <mxGeometry relative="1" as="geometry" />
        </mxCell>
        <mxCell id="PUMukoSkc652RVHDiV5a-55" value="y1 := y1 - 5;&lt;br&gt;y2 := y2 - 5;" style="rounded=0;whiteSpace=wrap;html=1;" parent="1" vertex="1">
          <mxGeometry x="255" y="40" width="120" height="40" as="geometry" />
        </mxCell>
        <mxCell id="PUMukoSkc652RVHDiV5a-56" style="edgeStyle=orthogonalEdgeStyle;rounded=0;orthogonalLoop=1;jettySize=auto;html=1;" parent="1" source="PUMukoSkc652RVHDiV5a-57" target="PUMukoSkc652RVHDiV5a-58" edge="1">
          <mxGeometry relative="1" as="geometry" />
        </mxCell>
        <mxCell id="PUMukoSkc652RVHDiV5a-57" value="drawing(x1, y1, x2, y2, deep);" style="rounded=0;whiteSpace=wrap;html=1;" parent="1" vertex="1">
          <mxGeometry x="255" y="100" width="120" height="30" as="geometry" />
        </mxCell>
        <mxCell id="PUMukoSkc652RVHDiV5a-94" style="edgeStyle=orthogonalEdgeStyle;rounded=0;orthogonalLoop=1;jettySize=auto;html=1;" parent="1" source="PUMukoSkc652RVHDiV5a-58" edge="1">
          <mxGeometry relative="1" as="geometry">
            <mxPoint x="315" y="260" as="targetPoint" />
          </mxGeometry>
        </mxCell>
        <mxCell id="PUMukoSkc652RVHDiV5a-58" value="&lt;div&gt;&lt;span style=&quot;white-space: pre;&quot;&gt;&#x9;&lt;/span&gt;MoveTo(x1, y1);&lt;/div&gt;&lt;div&gt;&amp;nbsp; &amp;nbsp; &amp;nbsp; LineTo(x2, y1);&lt;span style=&quot;background-color: initial;&quot;&gt;&amp;nbsp; &amp;nbsp; &amp;nbsp;LineTo(x2, y2);&lt;/span&gt;&lt;/div&gt;&lt;div&gt;&amp;nbsp; &amp;nbsp;LineTo(x1, y2);&lt;/div&gt;&lt;div&gt;&amp;nbsp; LineTo(x1, y1);&lt;/div&gt;" style="shape=parallelogram;perimeter=parallelogramPerimeter;whiteSpace=wrap;html=1;fixedSize=1;" parent="1" vertex="1">
          <mxGeometry x="250" y="160" width="130" height="80" as="geometry" />
        </mxCell>
        <mxCell id="PUMukoSkc652RVHDiV5a-61" style="edgeStyle=orthogonalEdgeStyle;rounded=0;orthogonalLoop=1;jettySize=auto;html=1;" parent="1" source="PUMukoSkc652RVHDiV5a-62" target="PUMukoSkc652RVHDiV5a-64" edge="1">
          <mxGeometry relative="1" as="geometry" />
        </mxCell>
        <mxCell id="PUMukoSkc652RVHDiV5a-62" value="ClearWindow();" style="shape=parallelogram;perimeter=parallelogramPerimeter;whiteSpace=wrap;html=1;fixedSize=1;" parent="1" vertex="1">
          <mxGeometry x="380" y="-40" width="120" height="60" as="geometry" />
        </mxCell>
        <mxCell id="PUMukoSkc652RVHDiV5a-63" style="edgeStyle=orthogonalEdgeStyle;rounded=0;orthogonalLoop=1;jettySize=auto;html=1;entryX=0.5;entryY=0;entryDx=0;entryDy=0;" parent="1" source="PUMukoSkc652RVHDiV5a-64" target="PUMukoSkc652RVHDiV5a-66" edge="1">
          <mxGeometry relative="1" as="geometry" />
        </mxCell>
        <mxCell id="PUMukoSkc652RVHDiV5a-64" value="y1 := y1 + 5;&lt;br&gt;y2 := y2 + 5;" style="rounded=0;whiteSpace=wrap;html=1;" parent="1" vertex="1">
          <mxGeometry x="380" y="40" width="120" height="40" as="geometry" />
        </mxCell>
        <mxCell id="PUMukoSkc652RVHDiV5a-65" style="edgeStyle=orthogonalEdgeStyle;rounded=0;orthogonalLoop=1;jettySize=auto;html=1;" parent="1" source="PUMukoSkc652RVHDiV5a-66" target="PUMukoSkc652RVHDiV5a-67" edge="1">
          <mxGeometry relative="1" as="geometry" />
        </mxCell>
        <mxCell id="PUMukoSkc652RVHDiV5a-66" value="drawing(x1, y1, x2, y2, deep);" style="rounded=0;whiteSpace=wrap;html=1;" parent="1" vertex="1">
          <mxGeometry x="380" y="100" width="120" height="30" as="geometry" />
        </mxCell>
        <mxCell id="PUMukoSkc652RVHDiV5a-95" style="edgeStyle=orthogonalEdgeStyle;rounded=0;orthogonalLoop=1;jettySize=auto;html=1;" parent="1" source="PUMukoSkc652RVHDiV5a-67" edge="1">
          <mxGeometry relative="1" as="geometry">
            <mxPoint x="440" y="260" as="targetPoint" />
          </mxGeometry>
        </mxCell>
        <mxCell id="PUMukoSkc652RVHDiV5a-67" value="&lt;div&gt;&lt;span style=&quot;white-space: pre;&quot;&gt;&#x9;&lt;/span&gt;MoveTo(x1, y1);&lt;/div&gt;&lt;div&gt;&amp;nbsp; &amp;nbsp; &amp;nbsp; LineTo(x2, y1);&lt;span style=&quot;background-color: initial;&quot;&gt;&amp;nbsp; &amp;nbsp; &amp;nbsp;LineTo(x2, y2);&lt;/span&gt;&lt;/div&gt;&lt;div&gt;&amp;nbsp; &amp;nbsp;LineTo(x1, y2);&lt;/div&gt;&lt;div&gt;&amp;nbsp; LineTo(x1, y1);&lt;/div&gt;" style="shape=parallelogram;perimeter=parallelogramPerimeter;whiteSpace=wrap;html=1;fixedSize=1;" parent="1" vertex="1">
          <mxGeometry x="375" y="160" width="130" height="80" as="geometry" />
        </mxCell>
        <mxCell id="PUMukoSkc652RVHDiV5a-70" style="edgeStyle=orthogonalEdgeStyle;rounded=0;orthogonalLoop=1;jettySize=auto;html=1;" parent="1" source="PUMukoSkc652RVHDiV5a-71" target="PUMukoSkc652RVHDiV5a-73" edge="1">
          <mxGeometry relative="1" as="geometry" />
        </mxCell>
        <mxCell id="PUMukoSkc652RVHDiV5a-71" value="ClearWindow();" style="shape=parallelogram;perimeter=parallelogramPerimeter;whiteSpace=wrap;html=1;fixedSize=1;" parent="1" vertex="1">
          <mxGeometry x="510" y="-40" width="120" height="60" as="geometry" />
        </mxCell>
        <mxCell id="PUMukoSkc652RVHDiV5a-72" style="edgeStyle=orthogonalEdgeStyle;rounded=0;orthogonalLoop=1;jettySize=auto;html=1;entryX=0.5;entryY=0;entryDx=0;entryDy=0;" parent="1" source="PUMukoSkc652RVHDiV5a-73" target="PUMukoSkc652RVHDiV5a-75" edge="1">
          <mxGeometry relative="1" as="geometry" />
        </mxCell>
        <mxCell id="PUMukoSkc652RVHDiV5a-73" value="deep := deep+1;" style="rounded=0;whiteSpace=wrap;html=1;" parent="1" vertex="1">
          <mxGeometry x="510" y="40" width="120" height="40" as="geometry" />
        </mxCell>
        <mxCell id="PUMukoSkc652RVHDiV5a-74" style="edgeStyle=orthogonalEdgeStyle;rounded=0;orthogonalLoop=1;jettySize=auto;html=1;" parent="1" source="PUMukoSkc652RVHDiV5a-75" target="PUMukoSkc652RVHDiV5a-76" edge="1">
          <mxGeometry relative="1" as="geometry" />
        </mxCell>
        <mxCell id="PUMukoSkc652RVHDiV5a-75" value="drawing(x1, y1, x2, y2, deep);" style="rounded=0;whiteSpace=wrap;html=1;" parent="1" vertex="1">
          <mxGeometry x="510" y="100" width="120" height="30" as="geometry" />
        </mxCell>
        <mxCell id="PUMukoSkc652RVHDiV5a-96" style="edgeStyle=orthogonalEdgeStyle;rounded=0;orthogonalLoop=1;jettySize=auto;html=1;" parent="1" source="PUMukoSkc652RVHDiV5a-76" edge="1">
          <mxGeometry relative="1" as="geometry">
            <mxPoint x="570" y="260" as="targetPoint" />
          </mxGeometry>
        </mxCell>
        <mxCell id="PUMukoSkc652RVHDiV5a-76" value="&lt;div&gt;&lt;span style=&quot;white-space: pre;&quot;&gt;&#x9;&lt;/span&gt;MoveTo(x1, y1);&lt;/div&gt;&lt;div&gt;&amp;nbsp; &amp;nbsp; &amp;nbsp; LineTo(x2, y1);&lt;span style=&quot;background-color: initial;&quot;&gt;&amp;nbsp; &amp;nbsp; &amp;nbsp;LineTo(x2, y2);&lt;/span&gt;&lt;/div&gt;&lt;div&gt;&amp;nbsp; &amp;nbsp;LineTo(x1, y2);&lt;/div&gt;&lt;div&gt;&amp;nbsp; LineTo(x1, y1);&lt;/div&gt;" style="shape=parallelogram;perimeter=parallelogramPerimeter;whiteSpace=wrap;html=1;fixedSize=1;" parent="1" vertex="1">
          <mxGeometry x="505" y="160" width="130" height="80" as="geometry" />
        </mxCell>
        <mxCell id="PUMukoSkc652RVHDiV5a-79" style="edgeStyle=orthogonalEdgeStyle;rounded=0;orthogonalLoop=1;jettySize=auto;html=1;" parent="1" source="PUMukoSkc652RVHDiV5a-80" target="PUMukoSkc652RVHDiV5a-82" edge="1">
          <mxGeometry relative="1" as="geometry" />
        </mxCell>
        <mxCell id="PUMukoSkc652RVHDiV5a-80" value="ClearWindow();" style="shape=parallelogram;perimeter=parallelogramPerimeter;whiteSpace=wrap;html=1;fixedSize=1;" parent="1" vertex="1">
          <mxGeometry x="635" y="-40" width="120" height="60" as="geometry" />
        </mxCell>
        <mxCell id="PUMukoSkc652RVHDiV5a-81" style="edgeStyle=orthogonalEdgeStyle;rounded=0;orthogonalLoop=1;jettySize=auto;html=1;entryX=0.5;entryY=0;entryDx=0;entryDy=0;" parent="1" source="PUMukoSkc652RVHDiV5a-82" target="PUMukoSkc652RVHDiV5a-84" edge="1">
          <mxGeometry relative="1" as="geometry" />
        </mxCell>
        <mxCell id="PUMukoSkc652RVHDiV5a-82" value="deep := deep-1;" style="rounded=0;whiteSpace=wrap;html=1;" parent="1" vertex="1">
          <mxGeometry x="635" y="40" width="120" height="40" as="geometry" />
        </mxCell>
        <mxCell id="PUMukoSkc652RVHDiV5a-83" style="edgeStyle=orthogonalEdgeStyle;rounded=0;orthogonalLoop=1;jettySize=auto;html=1;" parent="1" source="PUMukoSkc652RVHDiV5a-84" target="PUMukoSkc652RVHDiV5a-85" edge="1">
          <mxGeometry relative="1" as="geometry" />
        </mxCell>
        <mxCell id="PUMukoSkc652RVHDiV5a-84" value="drawing(x1, y1, x2, y2, deep);" style="rounded=0;whiteSpace=wrap;html=1;" parent="1" vertex="1">
          <mxGeometry x="635" y="100" width="120" height="30" as="geometry" />
        </mxCell>
        <mxCell id="PUMukoSkc652RVHDiV5a-97" style="edgeStyle=orthogonalEdgeStyle;rounded=0;orthogonalLoop=1;jettySize=auto;html=1;" parent="1" source="PUMukoSkc652RVHDiV5a-85" edge="1">
          <mxGeometry relative="1" as="geometry">
            <mxPoint x="695" y="260" as="targetPoint" />
          </mxGeometry>
        </mxCell>
        <mxCell id="PUMukoSkc652RVHDiV5a-85" value="&lt;div&gt;&lt;span style=&quot;white-space: pre;&quot;&gt;&#x9;&lt;/span&gt;MoveTo(x1, y1);&lt;/div&gt;&lt;div&gt;&amp;nbsp; &amp;nbsp; &amp;nbsp; LineTo(x2, y1);&lt;span style=&quot;background-color: initial;&quot;&gt;&amp;nbsp; &amp;nbsp; &amp;nbsp;LineTo(x2, y2);&lt;/span&gt;&lt;/div&gt;&lt;div&gt;&amp;nbsp; &amp;nbsp;LineTo(x1, y2);&lt;/div&gt;&lt;div&gt;&amp;nbsp; LineTo(x1, y1);&lt;/div&gt;" style="shape=parallelogram;perimeter=parallelogramPerimeter;whiteSpace=wrap;html=1;fixedSize=1;" parent="1" vertex="1">
          <mxGeometry x="630" y="160" width="130" height="80" as="geometry" />
        </mxCell>
        <mxCell id="PUMukoSkc652RVHDiV5a-98" value="" style="strokeWidth=2;html=1;shape=mxgraph.flowchart.annotation_2;align=left;labelPosition=right;pointerEvents=1;direction=north;" parent="1" vertex="1">
          <mxGeometry x="-5" y="290" width="495" height="50" as="geometry" />
        </mxCell>
        <mxCell id="PUMukoSkc652RVHDiV5a-99" value="&lt;font style=&quot;font-size: 18px;&quot;&gt;Клавиши управления местоположением&lt;/font&gt;" style="text;html=1;strokeColor=none;fillColor=none;align=center;verticalAlign=middle;whiteSpace=wrap;rounded=0;" parent="1" vertex="1">
          <mxGeometry x="-11" y="340" width="510" height="30" as="geometry" />
        </mxCell>
        <mxCell id="PUMukoSkc652RVHDiV5a-100" value="" style="strokeWidth=2;html=1;shape=mxgraph.flowchart.annotation_2;align=left;labelPosition=right;pointerEvents=1;direction=north;" parent="1" vertex="1">
          <mxGeometry x="504" y="290" width="256" height="50" as="geometry" />
        </mxCell>
        <mxCell id="PUMukoSkc652RVHDiV5a-101" value="&lt;font style=&quot;font-size: 18px;&quot;&gt;Клавиши управления глубиной&amp;nbsp;&lt;/font&gt;" style="text;html=1;strokeColor=none;fillColor=none;align=center;verticalAlign=middle;whiteSpace=wrap;rounded=0;" parent="1" vertex="1">
          <mxGeometry x="500" y="350" width="260" height="30" as="geometry" />
        </mxCell>
        <mxCell id="m0lxga6O_0EFN7dk0cp0-4" value="&lt;div style=&quot;border-color: var(--border-color);&quot;&gt;&amp;nbsp; &amp;nbsp; drawing(x1, y1, x3, y3, deep - 1);&lt;/div&gt;&lt;div style=&quot;border-color: var(--border-color);&quot;&gt;&amp;nbsp; &amp;nbsp; drawing(x3, y1, x4, y3, deep - 1);&lt;/div&gt;&lt;div style=&quot;border-color: var(--border-color);&quot;&gt;&amp;nbsp; &amp;nbsp; drawing(x4, y1, x2, y3, deep - 1);&lt;/div&gt;&lt;div style=&quot;border-color: var(--border-color);&quot;&gt;&amp;nbsp; &amp;nbsp; drawing(x4, y3, x2, y4, deep - 1);&lt;/div&gt;&lt;div style=&quot;border-color: var(--border-color);&quot;&gt;&amp;nbsp; &amp;nbsp; drawing(x4, y4, x2, y2, deep - 1);&lt;/div&gt;&lt;div style=&quot;border-color: var(--border-color);&quot;&gt;&amp;nbsp; &amp;nbsp; drawing(x3, y4, x4, y2, deep - 1);&lt;/div&gt;&lt;div style=&quot;border-color: var(--border-color);&quot;&gt;&amp;nbsp; &amp;nbsp; drawing(x1, y4, x3, y2, deep - 1);&lt;/div&gt;&lt;div style=&quot;border-color: var(--border-color);&quot;&gt;&amp;nbsp; &amp;nbsp; drawing(x1, y3, x3, y4, deep - 1);&lt;/div&gt;" style="shape=process;whiteSpace=wrap;html=1;backgroundOutline=1;" vertex="1" parent="1">
          <mxGeometry x="290" y="-745" width="239" height="135" as="geometry" />
        </mxCell>
        <mxCell id="m0lxga6O_0EFN7dk0cp0-5" value="VK_A" style="edgeLabel;html=1;align=center;verticalAlign=middle;resizable=0;points=[];" vertex="1" connectable="0" parent="1">
          <mxGeometry x="804" y="-65" as="geometry" />
        </mxCell>
        <mxCell id="m0lxga6O_0EFN7dk0cp0-6" style="edgeStyle=orthogonalEdgeStyle;rounded=0;orthogonalLoop=1;jettySize=auto;html=1;" edge="1" parent="1" source="m0lxga6O_0EFN7dk0cp0-7" target="m0lxga6O_0EFN7dk0cp0-9">
          <mxGeometry relative="1" as="geometry" />
        </mxCell>
        <mxCell id="m0lxga6O_0EFN7dk0cp0-7" value="ClearWindow();" style="shape=parallelogram;perimeter=parallelogramPerimeter;whiteSpace=wrap;html=1;fixedSize=1;" vertex="1" parent="1">
          <mxGeometry x="765" y="-40" width="120" height="60" as="geometry" />
        </mxCell>
        <mxCell id="m0lxga6O_0EFN7dk0cp0-8" style="edgeStyle=orthogonalEdgeStyle;rounded=0;orthogonalLoop=1;jettySize=auto;html=1;entryX=0.5;entryY=0;entryDx=0;entryDy=0;" edge="1" parent="1" source="m0lxga6O_0EFN7dk0cp0-9" target="m0lxga6O_0EFN7dk0cp0-11">
          <mxGeometry relative="1" as="geometry" />
        </mxCell>
        <mxCell id="m0lxga6O_0EFN7dk0cp0-9" value="&lt;div&gt;x2 := x2 + 100;&lt;/div&gt;&lt;div&gt;&amp;nbsp;y2 := y2 + 100;&lt;/div&gt;" style="rounded=0;whiteSpace=wrap;html=1;" vertex="1" parent="1">
          <mxGeometry x="765" y="40" width="120" height="40" as="geometry" />
        </mxCell>
        <mxCell id="m0lxga6O_0EFN7dk0cp0-10" style="edgeStyle=orthogonalEdgeStyle;rounded=0;orthogonalLoop=1;jettySize=auto;html=1;" edge="1" parent="1" source="m0lxga6O_0EFN7dk0cp0-11" target="m0lxga6O_0EFN7dk0cp0-13">
          <mxGeometry relative="1" as="geometry" />
        </mxCell>
        <mxCell id="m0lxga6O_0EFN7dk0cp0-11" value="drawing(x1, y1, x2, y2, deep);" style="rounded=0;whiteSpace=wrap;html=1;" vertex="1" parent="1">
          <mxGeometry x="765" y="100" width="120" height="30" as="geometry" />
        </mxCell>
        <mxCell id="m0lxga6O_0EFN7dk0cp0-12" style="edgeStyle=orthogonalEdgeStyle;rounded=0;orthogonalLoop=1;jettySize=auto;html=1;" edge="1" parent="1" source="m0lxga6O_0EFN7dk0cp0-13">
          <mxGeometry relative="1" as="geometry">
            <mxPoint x="825" y="260" as="targetPoint" />
          </mxGeometry>
        </mxCell>
        <mxCell id="m0lxga6O_0EFN7dk0cp0-13" value="&lt;div&gt;&lt;span style=&quot;white-space: pre;&quot;&gt;&#x9;&lt;/span&gt;MoveTo(x1, y1);&lt;/div&gt;&lt;div&gt;&amp;nbsp; &amp;nbsp; &amp;nbsp; LineTo(x2, y1);&lt;span style=&quot;background-color: initial;&quot;&gt;&amp;nbsp; &amp;nbsp; &amp;nbsp;LineTo(x2, y2);&lt;/span&gt;&lt;/div&gt;&lt;div&gt;&amp;nbsp; &amp;nbsp;LineTo(x1, y2);&lt;/div&gt;&lt;div&gt;&amp;nbsp; LineTo(x1, y1);&lt;/div&gt;" style="shape=parallelogram;perimeter=parallelogramPerimeter;whiteSpace=wrap;html=1;fixedSize=1;" vertex="1" parent="1">
          <mxGeometry x="760" y="160" width="130" height="80" as="geometry" />
        </mxCell>
        <mxCell id="m0lxga6O_0EFN7dk0cp0-14" value="VK_S" style="edgeLabel;html=1;align=center;verticalAlign=middle;resizable=0;points=[];" vertex="1" connectable="0" parent="1">
          <mxGeometry x="934" y="-65" as="geometry">
            <mxPoint x="1" y="-1" as="offset" />
          </mxGeometry>
        </mxCell>
        <mxCell id="m0lxga6O_0EFN7dk0cp0-15" style="edgeStyle=orthogonalEdgeStyle;rounded=0;orthogonalLoop=1;jettySize=auto;html=1;" edge="1" parent="1" source="m0lxga6O_0EFN7dk0cp0-16" target="m0lxga6O_0EFN7dk0cp0-18">
          <mxGeometry relative="1" as="geometry" />
        </mxCell>
        <mxCell id="m0lxga6O_0EFN7dk0cp0-16" value="ClearWindow();" style="shape=parallelogram;perimeter=parallelogramPerimeter;whiteSpace=wrap;html=1;fixedSize=1;" vertex="1" parent="1">
          <mxGeometry x="895" y="-40" width="120" height="60" as="geometry" />
        </mxCell>
        <mxCell id="m0lxga6O_0EFN7dk0cp0-17" style="edgeStyle=orthogonalEdgeStyle;rounded=0;orthogonalLoop=1;jettySize=auto;html=1;entryX=0.5;entryY=0;entryDx=0;entryDy=0;" edge="1" parent="1" source="m0lxga6O_0EFN7dk0cp0-18" target="m0lxga6O_0EFN7dk0cp0-20">
          <mxGeometry relative="1" as="geometry" />
        </mxCell>
        <mxCell id="m0lxga6O_0EFN7dk0cp0-18" value="&lt;div&gt;x2 := x2 - 100;&lt;/div&gt;&lt;div&gt;&amp;nbsp;y2 := y2 - 100;&lt;/div&gt;" style="rounded=0;whiteSpace=wrap;html=1;" vertex="1" parent="1">
          <mxGeometry x="895" y="40" width="120" height="40" as="geometry" />
        </mxCell>
        <mxCell id="m0lxga6O_0EFN7dk0cp0-19" style="edgeStyle=orthogonalEdgeStyle;rounded=0;orthogonalLoop=1;jettySize=auto;html=1;" edge="1" parent="1" source="m0lxga6O_0EFN7dk0cp0-20" target="m0lxga6O_0EFN7dk0cp0-22">
          <mxGeometry relative="1" as="geometry" />
        </mxCell>
        <mxCell id="m0lxga6O_0EFN7dk0cp0-20" value="drawing(x1, y1, x2, y2, deep);" style="rounded=0;whiteSpace=wrap;html=1;" vertex="1" parent="1">
          <mxGeometry x="895" y="100" width="120" height="30" as="geometry" />
        </mxCell>
        <mxCell id="m0lxga6O_0EFN7dk0cp0-21" style="edgeStyle=orthogonalEdgeStyle;rounded=0;orthogonalLoop=1;jettySize=auto;html=1;" edge="1" parent="1" source="m0lxga6O_0EFN7dk0cp0-22">
          <mxGeometry relative="1" as="geometry">
            <mxPoint x="955" y="260" as="targetPoint" />
          </mxGeometry>
        </mxCell>
        <mxCell id="m0lxga6O_0EFN7dk0cp0-22" value="&lt;div&gt;&lt;span style=&quot;white-space: pre;&quot;&gt;&#x9;&lt;/span&gt;MoveTo(x1, y1);&lt;/div&gt;&lt;div&gt;&amp;nbsp; &amp;nbsp; &amp;nbsp; LineTo(x2, y1);&lt;span style=&quot;background-color: initial;&quot;&gt;&amp;nbsp; &amp;nbsp; &amp;nbsp;LineTo(x2, y2);&lt;/span&gt;&lt;/div&gt;&lt;div&gt;&amp;nbsp; &amp;nbsp;LineTo(x1, y2);&lt;/div&gt;&lt;div&gt;&amp;nbsp; LineTo(x1, y1);&lt;/div&gt;" style="shape=parallelogram;perimeter=parallelogramPerimeter;whiteSpace=wrap;html=1;fixedSize=1;" vertex="1" parent="1">
          <mxGeometry x="890" y="160" width="130" height="80" as="geometry" />
        </mxCell>
        <mxCell id="m0lxga6O_0EFN7dk0cp0-25" value="" style="strokeWidth=2;html=1;shape=mxgraph.flowchart.annotation_2;align=left;labelPosition=right;pointerEvents=1;direction=north;" vertex="1" parent="1">
          <mxGeometry x="769" y="290" width="256" height="50" as="geometry" />
        </mxCell>
        <mxCell id="m0lxga6O_0EFN7dk0cp0-26" value="&lt;font style=&quot;font-size: 18px;&quot;&gt;Клавиши управления масштабом&lt;/font&gt;" style="text;html=1;strokeColor=none;fillColor=none;align=center;verticalAlign=middle;whiteSpace=wrap;rounded=0;" vertex="1" parent="1">
          <mxGeometry x="765" y="350" width="260" height="30" as="geometry" />
        </mxCell>
        <mxCell id="m0lxga6O_0EFN7dk0cp0-27" value="Очищение&lt;br&gt;окна" style="strokeWidth=2;html=1;shape=mxgraph.flowchart.annotation_2;align=left;labelPosition=right;pointerEvents=1;" vertex="1" parent="1">
          <mxGeometry x="1015" y="-45" width="50" height="70" as="geometry" />
        </mxCell>
        <mxCell id="m0lxga6O_0EFN7dk0cp0-28" value="Отрисовка&lt;br&gt;рамки ковра" style="strokeWidth=2;html=1;shape=mxgraph.flowchart.annotation_2;align=left;labelPosition=right;pointerEvents=1;" vertex="1" parent="1">
          <mxGeometry x="1025" y="160" width="50" height="80" as="geometry" />
        </mxCell>
      </root>
    </mxGraphModel>
  </diagram>
</mxfile>
